<svg id="visual" viewBox="0 0 900 600" width="900" height="600" xmlns="http://www.w3.org/2000/svg" xmlns:xlink="http://www.w3.org/1999/xlink" version="1.1"><rect x="0" y="0" width="900" height="600" fill="#55bcb6"></rect><defs><linearGradient id="grad1_0" x1="33.3%" y1="0%" x2="100%" y2="100%"><stop offset="20%" stop-color="#55bcb6" stop-opacity="1"></stop><stop offset="80%" stop-color="#55bcb6" stop-opacity="1"></stop></linearGradient></defs><defs><linearGradient id="grad2_0" x1="0%" y1="0%" x2="66.7%" y2="100%"><stop offset="20%" stop-color="#55bcb6" stop-opacity="1"></stop><stop offset="80%" stop-color="#55bcb6" stop-opacity="1"></stop></linearGradient></defs><g transform="translate(900, 0)"><path d="M0 486.7C-53.7 457.7 -107.5 428.7 -169.9 410.2C-232.3 391.7 -303.5 383.6 -344.2 344.2C-384.9 304.8 -395.2 234 -413.9 171.4C-432.6 108.9 -459.7 54.4 -486.7 0L0 0Z" fill="#3c42fa"></path></g><g transform="translate(0, 600)"><path d="M0 -486.7C52.6 -447.7 105.2 -408.7 159.2 -384.3C213.2 -360 268.7 -350.3 321 -321C373.4 -291.8 422.6 -243 449.7 -186.3C476.8 -129.5 481.8 -64.8 486.7 0L0 0Z" fill="#3c42fa"></path></g></svg>