<svg id="visual" viewBox="0 0 900 600" width="900" height="600" xmlns="http://www.w3.org/2000/svg" xmlns:xlink="http://www.w3.org/1999/xlink" version="1.1"><rect x="0" y="0" width="900" height="600" fill="#301060"></rect><path d="M0 406L21.5 422.7C43 439.3 86 472.7 128.8 469.2C171.7 465.7 214.3 425.3 257.2 420.8C300 416.3 343 447.7 385.8 452.7C428.7 457.7 471.3 436.3 514.2 422.3C557 408.3 600 401.7 642.8 407.3C685.7 413 728.3 431 771.2 444.5C814 458 857 467 878.5 471.5L900 476L900 601L878.5 601C857 601 814 601 771.2 601C728.3 601 685.7 601 642.8 601C600 601 557 601 514.2 601C471.3 601 428.7 601 385.8 601C343 601 300 601 257.2 601C214.3 601 171.7 601 128.8 601C86 601 43 601 21.5 601L0 601Z" fill="#4a3a96" stroke-linecap="round" stroke-linejoin="miter"></path></svg>